<svg width="500" height="177" viewBox="0 0 500 177" fill="none" xmlns="http://www.w3.org/2000/svg">
<path d="M79.2677 155.209C90.049 155.209 100.132 152.949 109.518 148.079C118.908 143.387 126.559 136.777 132.82 128.433L107.783 109.657C100.825 119.048 91.4396 123.564 79.2677 123.564C69.1844 123.564 60.6635 120.262 54.0594 113.48C47.2781 106.876 43.976 98.3553 43.976 88.272C43.976 78.1886 47.2781 69.8449 54.0594 63.0636C60.6635 56.4543 69.1844 52.9803 79.2677 52.9803C91.4396 52.9803 100.825 57.673 107.783 66.8866L132.82 48.1105C126.559 39.7668 118.908 33.3345 109.518 28.4647C100.132 23.772 90.049 21.3345 79.2677 21.3345C60.6635 21.3345 44.8458 27.9438 31.8042 40.9803C18.7625 54.022 12.3302 69.8449 12.3302 88.272C12.3302 106.876 18.7625 122.699 31.8042 135.736C44.8458 148.777 60.6635 155.209 79.2677 155.209Z" fill="#3340FF"/>
<path d="M203.231 155.21C218.877 155.21 231.919 151.038 242.695 142.689C253.476 134.345 258.867 124.09 258.867 111.918V23.0742H226.528V105.835C226.528 111.746 224.268 116.788 219.747 120.96C215.226 125.132 209.664 127.043 203.231 127.043C196.622 127.043 191.231 125.132 186.716 120.96C182.195 116.788 180.106 111.746 180.106 105.835V23.0742H147.768V111.918C147.768 124.09 152.987 134.345 163.763 142.689C174.544 151.038 187.58 155.21 203.231 155.21Z" fill="#3340FF"/>
<path d="M354.142 101.314C361.787 98.8763 367.876 94.1836 372.569 87.4024C377.261 80.6211 379.699 72.7982 379.699 63.9336C379.699 52.4596 375.871 42.8971 368.397 34.8971C360.746 27.0742 351.36 23.0742 340.058 23.0742H282.511V153.47H314.85V105.137H322.673L353.272 153.47H390.303L354.142 101.314ZM334.839 79.0586H314.85V51.2409H334.839C338.839 51.2409 342.142 52.6315 344.751 55.2409C347.36 58.0221 348.751 61.3242 348.751 65.1471C348.751 69.1471 347.36 72.4492 344.751 75.0586C342.142 77.8399 338.839 79.0586 334.839 79.0586Z" fill="#3340FF"/>
<path d="M471.158 80.798C477.768 74.3657 481.242 66.3657 481.242 56.8032C481.242 46.7199 477.419 38.3761 469.94 31.5949C462.466 24.8136 453.075 21.3345 441.778 21.3345C430.299 21.3345 420.914 24.8136 413.44 31.5949C405.96 38.3761 402.309 46.7199 402.309 56.8032C402.309 66.3657 405.611 74.3657 412.57 80.798C400.398 88.4438 394.315 99.397 394.315 113.48C394.315 125.48 398.658 135.387 407.7 143.387C416.742 151.381 428.044 155.209 441.778 155.209C455.512 155.209 466.815 151.381 475.851 143.387C484.893 135.387 489.414 125.48 489.414 113.48C489.414 99.397 483.33 88.4438 471.158 80.798ZM441.95 45.6782C445.773 45.6782 448.903 47.0688 451.512 49.5011C453.945 52.1105 455.335 55.4126 455.335 59.2355C455.335 63.2355 453.945 66.5376 451.512 68.9751C448.903 71.5793 445.773 72.798 441.95 72.798C437.95 72.798 434.648 71.5793 432.216 68.9751C429.606 66.5376 428.387 63.2355 428.387 59.2355C428.387 55.4126 429.606 52.1105 432.216 49.5011C434.648 47.0688 437.95 45.6782 441.95 45.6782ZM441.778 127.913C437.08 127.913 433.257 126.35 430.299 123.043C427.174 119.913 425.783 115.741 425.783 110.876C425.783 106.355 427.174 102.527 430.299 99.5741C433.257 96.6157 437.08 95.0532 441.778 95.0532C446.471 95.0532 450.294 96.6157 453.424 99.5741C456.382 102.527 457.945 106.355 457.945 110.876C457.945 115.741 456.382 119.913 453.252 123.043C450.122 126.35 446.299 127.913 441.778 127.913Z" fill="#00CF17"/>
</svg>
